<svg xmlns="http://www.w3.org/2000/svg" viewBox="0 0 50 50">
  <path d="M12 3C7.04 3 3 7.04 3 12L3 25.390625L16.449219 32.109375C16.939219 32.349375 17.140625 32.949219 16.890625 33.449219C16.720625 33.799219 16.37 34 16 34C15.85 34 15.700781 33.970625 15.550781 33.890625L3 27.619141L3 38C3 42.96 7.04 47 12 47L38 47C42.96 47 47 42.96 47 38L47 12C47 7.04 42.96 3 38 3L12 3 z M 31.5 9C36.74 9 41 13.26 41 18.5C41 23.74 36.74 28 31.5 28C30.4 28 29.340078 27.819219 28.330078 27.449219L23.580078 31.029297C23.860078 31.819297 24 32.65 24 33.5C24 37.64 20.64 41 16.5 41C12.36 41 9 37.64 9 33.5C9 33.28 9.0095312 33.069375 9.0195312 32.859375L14.660156 35.679688C15.080156 35.889688 15.54 36 16 36C17.14 36 18.169688 35.359844 18.679688 34.339844C19.419687 32.859844 18.819844 31.060312 17.339844 30.320312L11.890625 27.589844C13.160625 26.589844 14.76 26 16.5 26C17.4 26 18.289141 26.160703 19.119141 26.470703L22.570312 21.75C22.190313 20.71 22 19.62 22 18.5C22 13.26 26.26 9 31.5 9 z M 31.5 13C28.474279 13 26 15.474279 26 18.5C26 21.525721 28.474279 24 31.5 24C34.525721 24 37 21.525721 37 18.5C37 15.474279 34.525721 13 31.5 13 z M 31.5 15C33.444841 15 35 16.555159 35 18.5C35 20.444841 33.444841 22 31.5 22C29.555159 22 28 20.444841 28 18.5C28 16.555159 29.555159 15 31.5 15 z" fill="#FFFFFF" />
</svg>